<svg xmlns="http://www.w3.org/2000/svg" xmlns:xlink="http://www.w3.org/1999/xlink" aria-hidden="true" role="img" class="iconify iconify--logos" width="31.88" height="32" preserveAspectRatio="xMidYMid meet" viewBox="0 0 157.43 166.56"><defs><linearGradient id="a" x1="-11.47" y1="132.82" x2="168.9" y2="28.68" gradientUnits="userSpaceOnUse"><stop offset="0" stop-color="#e72625"/><stop offset="1" stop-color="#952686"/></linearGradient></defs><rect y="2.04" width="157.43" height="157.43" rx="9.26" fill="url(#a)"/><path d="M110.44,24.16h29.11a1.66,1.66,0,0,1,1.65,1.66V135.68a1.66,1.66,0,0,1-1.65,1.66H110.44a1.67,1.67,0,0,1-1.66-1.66v-12a1.66,1.66,0,0,1,1.66-1.66h13.8a1.66,1.66,0,0,0,1.66-1.66V41.24a1.65,1.65,0,0,0-1.66-1.65h-13.8a1.67,1.67,0,0,1-1.66-1.66V25.82A1.67,1.67,0,0,1,110.44,24.16Z" fill="#fff"/></svg>