<svg class='dark:text-white text-gray-800' xmlns="http://www.w3.org/2000/svg" xmlns:xlink="http://www.w3.org/1999/xlink" viewBox="0 0 584.85 181.5"><defs><linearGradient id="a" x1="3.01" y1="132.83" x2="183.39" y2="28.69" gradientUnits="userSpaceOnUse"><stop offset="0" stop-color="#e72625"/><stop offset="1" stop-color="#952686"/></linearGradient></defs><text transform="translate(198.93 137.92)" font-size="140.13" fill="currentColor" font-family="MaxwellSans-Book, Maxwell Sans">MAPDEV</text><rect x="14.49" y="2.04" width="157.43" height="157.43" rx="9.26" fill="url(#a)"/><path d="M124.93,24.17H154a1.66,1.66,0,0,1,1.66,1.66V135.68a1.66,1.66,0,0,1-1.66,1.66h-29.1a1.66,1.66,0,0,1-1.66-1.66v-12a1.66,1.66,0,0,1,1.66-1.66h13.8a1.66,1.66,0,0,0,1.66-1.66V41.25a1.66,1.66,0,0,0-1.66-1.66h-13.8a1.66,1.66,0,0,1-1.66-1.66V25.83A1.66,1.66,0,0,1,124.93,24.17Z" fill="#fff"/></svg>