<svg xmlns="http://www.w3.org/2000/svg" xmlns:xlink="http://www.w3.org/1999/xlink" viewBox="0 0 1366.54 490.67"><defs><radialGradient id="a" cx="687.68" cy="195.66" r="651.67" gradientTransform="translate(2.34 47.44) rotate(0.94) scale(1 0.7)" gradientUnits="userSpaceOnUse"><stop offset="0.01" stop-color="#005b97"/><stop offset="0.13" stop-color="#0075be"/><stop offset="0.43" stop-color="#1e9cd7"/><stop offset="0.52" stop-color="#40a9dd" stop-opacity="0.84"/><stop offset="0.68" stop-color="#7cc1e7" stop-opacity="0.57"/><stop offset="0.82" stop-color="#a7d2ee" stop-opacity="0.37"/><stop offset="0.93" stop-color="#c2dcf2" stop-opacity="0.25"/><stop offset="1" stop-color="#cce0f4" stop-opacity="0.2"/></radialGradient></defs><path d="M438.53,490.67l-.28-1c8.67-2.46,17.11-4.92,25.11-7.33L90.52,183.62c-8-6.47-28.14-13.66-46.56-14-1,0-2,0-3,0-15.45,0-29.87,2.29-40.62,6.46L0,175.1c10.91-4.24,25.5-6.57,41.18-6.53.93,0,1.87,0,2.8,0,18.63.36,39,7.67,47.16,14.24L465.46,482.78l-.9.27C456.29,485.55,447.53,488.11,438.53,490.67Z" fill="url(#a)"/><path d="M473.6,490.58l-10.25-8.21.92-.27c132.06-39.66,248.06-90.71,350.41-135.75,80.21-35.3,149.49-65.78,210.33-83.74,66.7-19.69,116-21.71,155-6.37l.81.32-292,234-.62-.78,290.66-232.94c-38.69-14.92-87.52-12.78-153.53,6.71-60.79,17.94-130,48.41-210.22,83.7C713,392.21,597.21,443.14,465.47,482.78l8.75,7Z" fill="url(#a)"/><path d="M1315,490.27c-23.43-134-66.43-208-135.33-233.1l-.87-.31,96.62-71.67a120.91,120.91,0,0,1,17.89-11.09,106.35,106.35,0,0,1,10.5-4.59,84.66,84.66,0,0,1,9.46-2.91c19.56-4.73,35.06-.5,53.29,5.51l-.31.95c-18.08-6-33.45-10.15-52.74-5.49a85.57,85.57,0,0,0-9.36,2.87,112.67,112.67,0,0,0-10.4,4.55A120.27,120.27,0,0,0,1276,186l-95.14,70.55c68.77,25.5,111.71,99.75,135.1,233.55Z" fill="url(#a)"/><path d="M256.45,490.67l-.27-1a1251.57,1251.57,0,0,0,150.71-53.53C580.8,362,735.31,253.94,859.46,167.08c78.48-54.91,146.26-102.33,205.27-132.77C1129.45.93,1176.53-7.8,1212.9,6.83c21.57,8.68,39.31,25.39,54.21,51.07,15.51,26.72,27.54,62.41,36.78,109.09,4.41,22.29,8.19,47.35,11.24,74.49,5.26,34.34,6.16,118,2.68,248.72l-1,0c3.48-130.63,2.58-214.25-2.67-248.56-3.05-27.13-6.82-52.17-11.23-74.43-9.22-46.57-21.21-82.15-36.66-108.78-14.79-25.48-32.36-42-53.72-50.64C1176.45-6.75,1129.63,2,1065.19,35.2,1006.24,65.61,938.49,113,860,167.9c-124.19,86.89-278.75,195-452.76,269.19A1255.36,1255.36,0,0,1,256.45,490.67Z" fill="url(#a)"/></svg>