<svg xmlns="http://www.w3.org/2000/svg" xmlns:xlink="http://www.w3.org/1999/xlink" viewBox="0 0 295.53 76.66"><defs><linearGradient id="a" x1="0.48" y1="-6.08" x2="89.2" y2="98.06" gradientUnits="userSpaceOnUse"><stop offset="0"/><stop offset="1" stop-color="#4d4e50"/></linearGradient><linearGradient id="b" x1="1.23" y1="-6.72" x2="89.94" y2="97.43" xlink:href="#a"/></defs><path d="M0,40.29H8L9.41,8.47,17.56,40h7.05L34.17,8.15l.94,32.29h8.78L41.86,0,69.29,27.75c12.81,15.17-.52,34.29-21,29.78V76.66H35.9Z" fill="url(#a)"/><polygon points="14.58 0.16 21.79 27.9 26.02 11.91 14.58 0.16" fill="url(#b)"/><path d="M104.78,51.07H99.51v-36h6.94l13.11,29.45,13.11-29.45h7v36H134.4V24l-12,27.11h-5.75l-11.91-27Z" fill="#414042"/><path d="M165.37,26.94l.42-2,4.44.26v25.9h-4.44l-.37-2.24a22.8,22.8,0,0,1-9.87,2.45c-9,0-14.62-5.43-14.62-13.47s5.53-13.43,14.46-13.43A26.23,26.23,0,0,1,165.37,26.94ZM165,44.33V31.49A23.83,23.83,0,0,0,156,29.34c-8.09,0-9.82,4.13-9.82,8.47s1.73,8.51,9.82,8.51A26.69,26.69,0,0,0,165,44.33Z" fill="#414042"/><path d="M173.57,25.17l4.44-.26.37,2a26.23,26.23,0,0,1,10-2.56c9,0,14.47,5.43,14.47,13.43s-5.59,13.47-14.57,13.47a22.64,22.64,0,0,1-9.4-2.19V61.83h-5.28Zm24,12.64c0-4.34-1.67-8.47-9.76-8.47a23.61,23.61,0,0,0-8.93,2.15V44.33a26.06,26.06,0,0,0,8.93,2C195.87,46.32,197.54,42.14,197.54,37.81Z" fill="#414042"/><path d="M241.73,51.07h-4.39L237,48.83a23.07,23.07,0,0,1-9.93,2.45c-8.93,0-14.57-5.43-14.57-13.47S218,24.38,227,24.38a26.34,26.34,0,0,1,9.56,2.35V14.82l5.22.32Zm-5.22-6.74V31.49a23.92,23.92,0,0,0-8.93-2.15c-8.1,0-9.82,4.13-9.82,8.47s1.72,8.51,9.82,8.51A26.46,26.46,0,0,0,236.51,44.33Z" fill="#414042"/><path d="M270.51,40.68l-21.78-.11c.89,3.19,3.55,5.75,9.51,5.75a30.77,30.77,0,0,0,9.19-1.46l1.51,4.59c-2.24,1-6.68,1.83-10.81,1.83-9,0-15-5.43-15-13.47s5.74-13.43,14.73-13.43c6.68,0,12.9,4,12.9,12.17C270.72,38.54,270.51,40.68,270.51,40.68Zm-22-5,16.87-.11c-.05-4.54-3.24-6.27-7.41-6.27C251.86,29.34,249.2,32.27,248.52,35.72Z" fill="#414042"/><path d="M278.71,51.07l-10.08-25.9,5.75-.26,7.67,21.36,7.79-21.16,5.69-.26-10,26.22Z" fill="#414042"/></svg>